<svg width="134" height="134" viewBox="0 0 134 134" fill="none" xmlns="http://www.w3.org/2000/svg">
<g clip-path="url(#clip0_269_110)">
<path d="M133.5 67C133.5 78.419 130.623 89.1648 125.55 98.5535C124.258 100.953 122.819 103.263 121.248 105.472C109.199 122.434 89.3902 133.5 67 133.5C51.9167 133.5 38.0115 128.481 26.8558 120.018C24.4101 118.167 22.0977 116.148 19.9344 113.979C17.3123 111.351 14.9074 108.507 12.7524 105.472C11.1808 103.263 9.7422 100.953 8.45013 98.5537C3.37716 89.1648 0.5 78.419 0.5 67C0.5 48.6595 7.92358 32.0509 19.9344 20.0211C22.0977 17.8523 24.4101 15.8329 26.8558 13.9818C38.0115 5.51867 51.9167 0.5 67 0.5C103.727 0.5 133.5 30.273 133.5 67Z" fill="#FD5959"/>
<path d="M123.657 57.157C123.657 66.8857 121.206 76.0411 116.883 84.0401C115.783 86.0845 114.557 88.0524 113.218 89.9347C102.953 104.385 86.0758 113.814 66.9999 113.814C54.1491 113.814 42.3022 109.538 32.7979 102.328C30.7143 100.75 28.744 99.0301 26.901 97.1822C24.667 94.9438 22.6182 92.5202 20.7822 89.9347C19.4434 88.0524 18.2178 86.0845 17.1169 84.0401C12.7947 76.0411 10.3435 66.8857 10.3435 57.157C10.3435 41.531 16.6683 27.3811 26.9012 17.1318C28.7443 15.284 30.7146 13.5636 32.7982 11.9863C42.3022 4.77574 54.1491 0.5 66.9999 0.5C98.2908 0.5 123.657 25.8661 123.657 57.157Z" fill="#FD5959"/>
<path d="M26.0492 103.833L21.4487 100.951L42.8298 66.8237L70.1512 42.8172L95.6219 49.3386L120.501 12.0381L125.018 15.0501L98.0032 55.5514L71.5814 48.7869L47.0089 70.3781L26.0492 103.833Z" fill="#F0F0F0"/>
<path d="M26.8559 0.5V120.018C24.4102 118.167 22.0978 116.148 19.9344 113.979V0.5H26.8559Z" fill="#343A6E"/>
<path d="M125.55 98.5537C124.258 100.953 122.819 103.263 121.248 105.472H12.7524C11.1809 103.263 9.74227 100.953 8.4502 98.5537H125.55Z" fill="#343A6E"/>
<path d="M44.9195 75.1161C48.517 75.1161 51.4334 72.1998 51.4334 68.6023C51.4334 65.0047 48.517 62.0884 44.9195 62.0884C41.322 62.0884 38.4056 65.0047 38.4056 68.6023C38.4056 72.1998 41.322 75.1161 44.9195 75.1161Z" fill="#F9DF73"/>
<path d="M70.8651 52.3158C74.4626 52.3158 77.379 49.3995 77.379 45.802C77.379 42.2045 74.4626 39.2881 70.8651 39.2881C67.2676 39.2881 64.3512 42.2045 64.3512 45.802C64.3512 49.3995 67.2676 52.3158 70.8651 52.3158Z" fill="#F9DF73"/>
<path d="M96.814 58.9604C100.412 58.9604 103.328 56.044 103.328 52.4465C103.328 48.849 100.412 45.9326 96.814 45.9326C93.2165 45.9326 90.3002 48.849 90.3002 52.4465C90.3002 56.044 93.2165 58.9604 96.814 58.9604Z" fill="#F9DF73"/>
<path d="M122.76 20.0595C126.357 20.0595 129.274 17.1431 129.274 13.5454C129.274 9.94773 126.357 7.03125 122.76 7.03125C119.162 7.03125 116.245 9.94773 116.245 13.5454C116.245 17.1431 119.162 20.0595 122.76 20.0595Z" fill="#F9DF73"/>
</g>
<defs>
<clipPath id="clip0_269_110">
<rect width="133" height="133" fill="white" transform="translate(0.5 0.5)"/>
</clipPath>
</defs>
</svg>
