<svg width="20" height="20" viewBox="0 0 20 20" fill="none" xmlns="http://www.w3.org/2000/svg">
<path fill-rule="evenodd" clip-rule="evenodd" d="M0.853553 0.146447C0.658291 -0.0488155 0.341709 -0.0488155 0.146447 0.146447C-0.0488155 0.341709 -0.0488155 0.658291 0.146447 0.853553L9.22896 9.93607L0.146476 19.0186C-0.0487847 19.2138 -0.0487847 19.5304 0.146476 19.7257C0.341739 19.9209 0.658321 19.9209 0.853584 19.7257L9.93607 10.6432L9.93609 10.6432L9.93614 10.6431L19.0187 19.7257C19.2139 19.9209 19.5305 19.9209 19.7258 19.7257C19.921 19.5304 19.921 19.2138 19.7258 19.0186L10.6433 9.93604L19.7257 0.853553C19.921 0.658291 19.921 0.341709 19.7257 0.146447C19.5305 -0.0488155 19.2139 -0.0488155 19.0186 0.146447L9.93614 9.22893L9.93612 9.22891L9.93607 9.22896L0.853553 0.146447Z" fill="#5A5A89"/>
</svg>
